<?xml version="1.0" encoding="UTF-8"?>
<!DOCTYPE svg PUBLIC "-//W3C//DTD SVG 1.1//EN" "http://www.w3.org/Graphics/SVG/1.1/DTD/svg11.dtd">
<svg xmlns="http://www.w3.org/2000/svg" xmlns:xlink="http://www.w3.org/1999/xlink" version="1.1" width="85px" height="76px" viewBox="-0.5 -0.5 85 76" style="background-color: rgb(255, 255, 255);"><defs/><rect fill="#ffffff" width="100%" height="100%" x="0" y="0"/><g><g data-cell-id="0"><g data-cell-id="1"><g data-cell-id="1m6Am2Lu4YJ1uFveUa6q-1"><g><rect x="-1" y="0" width="85" height="76" fill="none" stroke="none" pointer-events="all"/></g><g data-cell-id="1m6Am2Lu4YJ1uFveUa6q-2"><g><path d="M 40.07 73.33 C 27.66 67.15 20.2 57.52 19.58 46.89 L 19.58 42.06 L 0 42.06 L 0.22 39.12 C 0.49 35.77 1.62 32.55 3.5 29.77 C 5.39 26.98 7.95 24.72 10.97 23.19 C 11.6 22.84 12.15 22.36 12.57 21.76 C 12.99 21.17 13.26 20.49 13.37 19.77 C 13.86 17.38 14.91 15.14 16.45 13.24 C 17.99 11.34 19.96 9.83 22.22 8.85 C 24.15 8.01 26.24 7.59 28.36 7.57 C 28.83 7.54 29.29 7.54 29.77 7.57 L 30.25 7.57 C 30.88 7.58 31.51 7.46 32.09 7.21 C 32.67 6.96 33.19 6.6 33.62 6.14 C 35.68 3.94 38.25 2.28 41.11 1.29 C 43.97 0.29 47.02 0 50.02 0.44 C 53.01 0.87 55.86 2.02 58.3 3.78 C 60.76 5.54 62.73 7.87 64.08 10.56 C 64.39 11.23 64.86 11.83 65.45 12.28 C 66.03 12.75 66.71 13.08 67.45 13.25 C 69.59 13.71 71.63 14.55 73.47 15.71 C 77.57 18.27 80.53 22.28 81.76 26.92 C 83 31.56 82.41 36.5 80.12 40.73 L 79.36 42.14 L 63.01 42.14 L 63.01 46.92 C 62.4 57.6 54.98 67.24 42.51 73.4 L 41.3 74 L 40.07 73.33 L 40.07 73.33" fill="#ffffff" stroke="none" pointer-events="all"/></g></g><g data-cell-id="1m6Am2Lu4YJ1uFveUa6q-3"><g><path d="M 47.27 2 C 50.55 1.98 53.78 2.9 56.56 4.61 C 59.36 6.34 61.61 8.81 63.07 11.74 C 63.46 12.52 64.02 13.22 64.71 13.76 C 65.41 14.3 66.21 14.67 67.07 14.86 C 69.1 15.31 71.04 16.11 72.81 17.21 C 76.68 19.64 79.49 23.45 80.66 27.86 C 81.82 32.28 81.25 36.98 79.09 40.99 L 78.6 41.9 L 61.89 41.9 L 61.89 47.68 C 61.31 57.99 54.05 67.35 42 73.36 L 41.25 73.74 L 40.46 73.36 C 28.45 67.37 21.19 57.99 20.61 47.68 L 20.61 41.94 L 1.16 41.94 L 1.3 40.1 C 1.52 36.91 2.56 33.82 4.31 31.14 C 6.06 28.46 8.47 26.27 11.32 24.78 C 12.09 24.39 12.76 23.82 13.29 23.13 C 13.82 22.44 14.18 21.64 14.35 20.79 C 14.79 18.55 15.76 16.45 17.2 14.66 C 18.63 12.88 20.47 11.47 22.57 10.55 C 24.37 9.76 26.32 9.36 28.29 9.35 L 29.61 9.35 L 30.2 9.35 C 30.94 9.34 31.69 9.17 32.37 8.88 C 33.06 8.57 33.68 8.14 34.2 7.59 C 35.87 5.81 37.9 4.39 40.15 3.43 C 42.39 2.47 44.82 1.98 47.27 2 L 47.27 2 M 47.27 0 C 44.56 0.01 41.9 0.56 39.42 1.64 C 36.94 2.72 34.72 4.29 32.88 6.27 C 32.54 6.63 32.13 6.92 31.67 7.11 C 31.22 7.3 30.74 7.39 30.25 7.39 L 29.86 7.39 C 29.35 7.36 28.85 7.36 28.34 7.39 C 24.59 7.39 20.96 8.7 18.06 11.08 C 15.16 13.47 13.16 16.77 12.43 20.45 C 12.32 21.01 12.09 21.54 11.74 21.99 C 11.39 22.45 10.95 22.82 10.43 23.09 C 7.3 24.72 4.62 27.12 2.68 30.07 C 0.73 33.02 -0.43 36.42 -0.7 39.94 L -0.84 41.78 L -1 43.94 L 18.6 43.94 L 18.6 47.63 L 18.6 47.77 C 19.25 58.87 26.87 68.83 39.59 75.18 L 40.34 75.56 L 41.25 76 L 42.15 75.56 L 42.91 75.18 C 55.61 68.83 63.27 58.85 63.89 47.83 L 63.89 43.94 L 79.91 43.94 L 80.46 42.89 L 80.94 42 C 83.38 37.51 84 32.28 82.68 27.36 C 81.37 22.44 78.22 18.2 73.88 15.52 C 71.93 14.28 69.78 13.41 67.51 12.92 C 66.95 12.8 66.42 12.56 65.95 12.21 C 65.5 11.87 65.12 11.43 64.85 10.93 C 63.23 7.65 60.74 4.89 57.62 2.96 C 54.51 1.03 50.94 0 47.27 0 L 47.27 0" fill="#ffffff" stroke="none" pointer-events="all"/></g></g><g data-cell-id="1m6Am2Lu4YJ1uFveUa6q-4"><g><path d="M 31 38.9 C 31 40.86 31.57 42.78 32.67 44.41 C 33.75 46.04 35.3 47.3 37.11 48.05 C 38.92 48.8 40.91 49 42.83 48.62 C 44.75 48.24 46.52 47.29 47.9 45.91 C 49.29 44.52 50.24 42.76 50.61 40.84 C 51 38.92 50.8 36.92 50.05 35.11 C 49.3 33.3 48.04 31.76 46.4 30.67 C 44.77 29.58 42.86 29 40.9 29 C 38.27 29 35.76 30.04 33.9 31.9 C 32.04 33.76 31 36.28 31 38.9 L 31 38.9 M 47.46 38.9 C 47.46 40.2 47.08 41.46 46.36 42.54 C 45.64 43.61 44.62 44.45 43.42 44.94 C 42.23 45.44 40.91 45.57 39.64 45.31 C 38.37 45.06 37.21 44.44 36.29 43.52 C 35.38 42.6 34.76 41.44 34.51 40.17 C 34.26 38.9 34.39 37.58 34.89 36.39 C 35.38 35.19 36.23 34.18 37.3 33.46 C 38.39 32.74 39.65 32.36 40.94 32.37 C 41.81 32.36 42.66 32.52 43.46 32.85 C 44.26 33.17 44.99 33.65 45.61 34.26 C 46.21 34.87 46.7 35.59 47.04 36.39 C 47.37 37.19 47.54 38.04 47.54 38.9 L 47.46 38.9 L 47.46 38.9" fill="#2d5967" stroke="none" pointer-events="all"/></g></g><g data-cell-id="1m6Am2Lu4YJ1uFveUa6q-5"><g><path d="M 48.13 49.03 L 46.03 49.03 L 45.52 49.64 C 44.91 50.38 44.14 50.98 43.25 51.39 C 42.37 51.8 41.39 52.01 40.41 52.01 C 39.42 52.01 38.44 51.8 37.55 51.39 C 36.66 50.98 35.89 50.38 35.28 49.64 L 34.8 49.03 L 32.6 49.03 C 31.51 49.04 30.43 49.29 29.45 49.76 C 28.49 50.23 27.64 50.91 27 51.74 C 27.49 53.14 28.14 54.48 28.96 55.74 C 28.96 54.83 29.34 53.95 30.03 53.3 C 30.71 52.66 31.65 52.29 32.62 52.29 L 33.19 52.29 C 34.11 53.24 35.22 54 36.47 54.52 C 37.72 55.04 39.06 55.3 40.42 55.3 C 41.78 55.3 43.13 55.04 44.38 54.52 C 45.62 54 46.74 53.24 47.66 52.29 L 48.13 52.29 C 49.1 52.29 50.03 52.66 50.72 53.3 C 51.41 53.95 51.8 54.83 51.8 55.74 L 51.8 56 C 52.72 54.67 53.45 53.24 54 51.74 C 53.33 50.87 52.44 50.17 51.42 49.7 C 50.4 49.23 49.27 49 48.13 49.03 L 48.13 49.03" fill="#2d5967" stroke="none" pointer-events="all"/></g></g><g data-cell-id="1m6Am2Lu4YJ1uFveUa6q-6"><g><path d="M 72.03 17.25 C 70.29 16.14 68.36 15.34 66.34 14.89 C 65.49 14.7 64.7 14.32 64 13.78 C 63.31 13.24 62.76 12.56 62.38 11.77 C 60.93 8.83 58.7 6.36 55.92 4.63 C 53.16 2.91 49.96 2 46.71 2.01 C 44.3 2.02 41.93 2.52 39.72 3.49 C 37.51 4.46 35.53 5.88 33.89 7.65 C 33.3 8.28 32.58 8.76 31.78 9.06 C 30.97 9.36 30.11 9.46 29.26 9.37 C 26.87 9.16 24.48 9.55 22.27 10.51 C 20.2 11.43 18.38 12.85 16.96 14.63 C 15.54 16.42 14.58 18.52 14.14 20.77 C 13.96 21.62 13.61 22.42 13.09 23.11 C 12.56 23.8 11.9 24.37 11.12 24.76 C 8.3 26.26 5.92 28.45 4.18 31.13 C 2.44 33.82 1.42 36.9 1.2 40.1 L 1 42 L 17.71 42 L 17.71 38.52 L 4.82 38.52 C 5.26 36.26 6.19 34.12 7.58 32.27 C 8.94 30.42 10.72 28.91 12.75 27.84 C 13.98 27.21 15.04 26.3 15.86 25.18 C 16.69 24.08 17.26 22.79 17.52 21.43 C 17.84 19.73 18.58 18.14 19.66 16.78 C 20.73 15.44 22.11 14.36 23.68 13.67 C 25.34 12.93 27.17 12.63 28.96 12.79 C 30.34 12.94 31.71 12.76 33 12.28 C 34.28 11.8 35.45 11.02 36.38 10.01 C 37.71 8.58 39.3 7.44 41.08 6.66 C 42.86 5.88 44.77 5.48 46.71 5.47 C 49.33 5.45 51.9 6.18 54.13 7.56 C 56.35 8.95 58.14 10.94 59.29 13.31 C 59.91 14.56 60.8 15.65 61.9 16.51 C 63 17.37 64.26 17.97 65.62 18.27 C 67.73 18.74 69.7 19.68 71.4 21.01 C 73.1 22.35 74.49 24.05 75.45 25.99 C 76.41 27.93 76.94 30.07 76.98 32.24 C 77.02 34.41 76.58 36.56 75.69 38.54 L 63.78 38.54 L 63.78 42 L 77.79 42 L 78.27 41.1 C 80.43 37.07 81 32.36 79.85 27.93 C 78.69 23.5 75.9 19.68 72.03 17.25 L 72.03 17.25" fill="#2d5967" stroke="none" pointer-events="all"/></g></g><g data-cell-id="1m6Am2Lu4YJ1uFveUa6q-7"><g><path d="M 20 27.81 L 20 46.99 C 20.57 57.28 27.77 66.62 39.72 72.62 L 40.5 73 L 41.25 72.62 C 53.18 66.64 60.43 57.28 61 46.99 L 61 27.81 L 40.5 19 L 20 27.81 L 20 27.81 M 57.6 46.84 C 57.06 55.64 50.85 63.73 40.5 69.18 C 30.14 63.73 23.93 55.64 23.42 46.84 L 23.42 30.06 L 40.5 22.73 L 57.6 30.06 L 57.6 46.84 L 57.6 46.84" fill="#2d5967" stroke="none" pointer-events="all"/></g></g></g></g></g></g></svg>