<?xml version="1.0" encoding="UTF-8" standalone="no"?>
<!-- Created with Inkscape (http://www.inkscape.org/) -->

<svg
   width="54.311256mm"
   height="52.228203mm"
   viewBox="0 0 54.311256 52.228203"
   version="1.1"
   id="svg20250"
   inkscape:version="1.2.1 (9c6d41e410, 2022-07-14)"
   sodipodi:docname="VCN-icon.svg"
   xmlns:inkscape="http://www.inkscape.org/namespaces/inkscape"
   xmlns:sodipodi="http://sodipodi.sourceforge.net/DTD/sodipodi-0.dtd"
   xmlns="http://www.w3.org/2000/svg"
   xmlns:svg="http://www.w3.org/2000/svg">
  <sodipodi:namedview
     id="namedview20252"
     pagecolor="#ffffff"
     bordercolor="#666666"
     borderopacity="1.0"
     inkscape:showpageshadow="2"
     inkscape:pageopacity="1"
     inkscape:pagecheckerboard="0"
     inkscape:deskcolor="#d1d1d1"
     inkscape:document-units="mm"
     showgrid="false"
     inkscape:zoom="3.4149997"
     inkscape:cx="102.92827"
     inkscape:cy="98.389467"
     inkscape:window-width="1920"
     inkscape:window-height="1017"
     inkscape:window-x="1072"
     inkscape:window-y="573"
     inkscape:window-maximized="1"
     inkscape:current-layer="layer1" />
  <defs
     id="defs20247" />
  <g
     inkscape:label="Layer 1"
     inkscape:groupmode="layer"
     id="layer1"
     transform="translate(-49.611319,-45.696425)">
    <path
       id="VCN-0"
       d="m 103.22528,67.36597 c 0,-3.8372 -3.10629,-6.9435 -6.94348,-6.9435 -1.42524,0 -2.74085,0.43854 -3.83719,1.16943 l -9.2458,-6.76076 c 0.10967,-0.51163 0.18272,-1.02326 0.18272,-1.57142 0,-3.8372 -3.1063,-6.94348 -6.94348,-6.94348 -3.8372,0 -6.9435,3.10628 -6.9435,6.94348 0,0.62126 0.0731,1.20597 0.25582,1.79069 l -8.84381,6.43185 c -1.0598,-0.6578 -2.33886,-1.05979 -3.65446,-1.05979 -3.83719,0 -6.94349,3.1063 -6.94349,6.9435 0,3.65446 2.81394,6.61457 6.39532,6.90693 l 3.3621,10.30559 c -1.75414,1.27907 -2.92356,3.32557 -2.92356,5.62788 0,3.83719 3.10628,6.94349 6.94348,6.94349 2.88703,0 5.4086,-1.79069 6.43186,-4.34881 h 12.53481 c 1.02326,2.52158 3.50829,4.34881 6.43187,4.34881 3.8372,0 6.94348,-3.1063 6.94348,-6.94349 0,-2.44848 -1.27906,-4.56808 -3.17938,-5.8106 L 96.53761,74.2729 c 3.69101,-0.10967 6.68767,-3.17938 6.68767,-6.90693 z M 96.2818,64.07695 c 1.82723,0 3.28901,1.46178 3.28901,3.28902 0,1.82722 -1.46178,3.28901 -3.28901,3.28901 -1.82724,0 -3.28902,-1.46179 -3.28902,-3.28901 0,-1.82724 1.49833,-3.28902 3.28902,-3.28902 z m -5.8837,-0.36546 c -0.6578,1.05979 -1.05979,2.30232 -1.05979,3.65448 0,0.21926 0,0.43853 0.0366,0.6578 l -6.90694,2.19268 c -0.95015,-1.64452 -2.52158,-2.85048 -4.38536,-3.32557 v -6.8704 c 1.53487,-0.36544 2.88703,-1.27906 3.83719,-2.48504 z m -21.04972,21.99989 4.34881,-5.70097 c 0.84053,0.36545 1.75415,0.54817 2.74086,0.54817 1.16942,0 2.26576,-0.29235 3.21593,-0.80398 l 4.53153,5.92023 c -0.9867,1.13289 -1.57142,2.59467 -1.6445,4.20264 H 70.99288 c -0.0731,-1.57142 -0.69433,-3.0332 -1.6445,-4.16609 z m 7.08967,-15.34876 c 1.82722,0 3.28902,1.46178 3.28902,3.28902 0,1.82724 -1.4618,3.28902 -3.28902,3.28902 -1.82724,0 -3.28902,-1.46178 -3.28902,-3.28902 0,-1.82724 1.46178,-3.28902 3.28902,-3.28902 z m 0,-20.39192 c 1.82722,0 3.28902,1.46178 3.28902,3.28902 0,1.82724 -1.4618,3.28902 -3.28902,3.28902 -1.82724,0 -3.28902,-1.46178 -3.28902,-3.28902 0,-1.82724 1.46178,-3.28902 3.28902,-3.28902 z m -1.27907,10.12287 v 6.72422 c -1.93687,0.36544 -3.61792,1.53487 -4.60463,3.17939 l -6.35877,-2.22923 c 0,-0.14618 0.0366,-0.29236 0.0366,-0.43853 0,-1.42525 -0.43854,-2.70431 -1.13288,-3.80065 l 8.03982,-5.84714 c 0.95017,1.24251 2.37541,2.11958 4.01992,2.41194 z m -21.19591,7.2724 c 0,-1.82724 1.46179,-3.28902 3.28903,-3.28902 1.82723,0 3.28902,1.46178 3.28902,3.28902 0,1.82722 -1.46179,3.28901 -3.28902,3.28901 -1.82724,0 -3.28903,-1.49834 -3.28903,-3.28901 z m 5.66443,6.50494 c 1.60797,-0.58471 2.96012,-1.75414 3.7641,-3.25247 l 6.1395,2.15613 c -0.0366,0.29236 -0.0731,0.58471 -0.0731,0.87707 0,1.79069 0.69435,3.4352 1.82724,4.67772 l -4.31228,5.62788 c -0.91361,-0.43854 -1.90032,-0.65781 -2.96011,-0.65781 -0.47508,0 -0.91362,0.0366 -1.35216,0.14618 z m 4.4219,19.66102 c -1.82724,0 -3.28902,-1.46178 -3.28902,-3.28902 0,-1.82722 1.46178,-3.28901 3.28902,-3.28901 1.82724,0 3.28902,1.46179 3.28902,3.28901 0,1.82724 -1.46178,3.28902 -3.28902,3.28902 z m 25.39854,0 c -1.82722,0 -3.28902,-1.46178 -3.28902,-3.28902 0,-1.82722 1.4618,-3.28901 3.28902,-3.28901 1.82724,0 3.28902,1.46179 3.28902,3.28901 0,1.82724 -1.46178,3.28902 -3.28902,3.28902 z m 0,-10.26904 c -1.05979,0 -2.04649,0.25581 -2.96011,0.6578 L 81.8832,77.92736 c 0.91362,-1.16942 1.46178,-2.66775 1.46178,-4.27572 0,-0.21927 0,-0.43853 -0.0366,-0.62125 l 6.90695,-2.22923 c 0.76743,1.31561 1.93687,2.3754 3.3621,2.99666 l -3.1063,9.61124 c -0.29235,-0.10967 -0.6578,-0.14617 -1.02324,-0.14617 z"
       fill="#312d2a"
       style="fill:#312d2a;stroke-width:0.264583"
       inkscape:label="#VCN">
      <desc
         id="desc3195-0">OCI_icon_VCN</desc>
    </path>
  </g>
</svg>
