<?xml version="1.0" encoding="UTF-8" standalone="no"?><!DOCTYPE svg PUBLIC "-//W3C//DTD SVG 1.1//EN" "http://www.w3.org/Graphics/SVG/1.1/DTD/svg11.dtd"><svg width="100%" height="100%" viewBox="0 0 980 125" version="1.1" xmlns="http://www.w3.org/2000/svg" xmlns:xlink="http://www.w3.org/1999/xlink" xml:space="preserve" xmlns:serif="http://www.serif.com/" style="fill-rule:evenodd;clip-rule:evenodd;stroke-linejoin:round;stroke-miterlimit:2;"><g id="Hg_Button-Primary-Normal" serif:id="Hg_Button/Primary Normal"><path d="M980.013,12.549l-0,100c-0,6.899 -5.601,12.5 -12.5,12.5l-954.915,0c-6.899,0 -12.5,-5.601 -12.5,-12.5l-0,-100c-0,-6.899 5.601,-12.5 12.5,-12.5l954.915,0c6.899,0 12.5,5.601 12.5,12.5Z" style="fill:#2c2925;"/><g transform="matrix(58.3333,0,0,58.3333,938.229,84.7663)"></g><text x="164.373px" y="84.766px" style="font-family:'ArialMT', 'Arial', sans-serif;font-size:58.333px;fill:#fff;">Deploy to OCI  [one-of<tspan x="743.69px 759.897px " y="84.766px 84.766px ">f </tspan>mode]</text><g id="_-24px---Oracle---oracle-o" serif:id=" 24px / Oracle / oracle-o"><path id="Mask" d="M66.854,94.996c-16.371,0 -29.644,-13.323 -29.644,-29.793c0,-16.469 13.273,-29.822 29.644,-29.822l34.46,0c16.386,0 29.6,13.353 29.6,29.822c0,16.47 -13.214,29.808 -29.6,29.808l-34.46,-0.015Zm33.674,-10.491c10.624,-0 19.202,-8.649 19.202,-19.302c0,-10.667 -8.578,-19.286 -19.202,-19.286l-32.91,0c-10.594,0 -19.18,8.619 -19.18,19.286c-0,10.653 8.586,19.302 19.18,19.302l32.91,-0Z" style="fill:#c74634;"/></g></g></svg>