<?xml version="1.0" encoding="UTF-8" standalone="no"?><!DOCTYPE svg PUBLIC "-//W3C//DTD SVG 1.1//EN" "http://www.w3.org/Graphics/SVG/1.1/DTD/svg11.dtd"><svg width="100%" height="100%" viewBox="0 0 209 30" version="1.1" xmlns="http://www.w3.org/2000/svg" xmlns:xlink="http://www.w3.org/1999/xlink" xml:space="preserve" xmlns:serif="http://www.serif.com/" style="fill-rule:evenodd;clip-rule:evenodd;stroke-linejoin:round;stroke-miterlimit:2;"><g id="Hg_Button-Primary-Normal" serif:id="Hg_Button/Primary Normal"><path d="M208.729,3.012l-0,24c-0,1.656 -1.344,3 -3,3l-202.705,-0c-1.656,-0 -3,-1.344 -3,-3l-0,-24c-0,-1.656 1.344,-3 3,-3l202.705,-0c1.656,-0 3,1.344 3,3Z" style="fill:#2c2925;"/><g transform="matrix(14,0,0,14,198.173,20.3439)"></g><text x="39.449px" y="20.344px" style="font-family:'ArialMT', 'Arial', sans-serif;font-size:14px;fill:#fff;">Deploy to OCI  [one-stack]</text><g id="_-24px---Oracle---oracle-o" serif:id=" 24px / Oracle / oracle-o"><path id="Mask" d="M16.045,22.799c-3.929,0 -7.114,-3.198 -7.114,-7.15c-0,-3.953 3.185,-7.157 7.114,-7.157l8.27,-0c3.933,-0 7.104,3.204 7.104,7.157c0,3.952 -3.171,7.154 -7.104,7.154l-8.27,-0.004Zm8.082,-2.518c2.55,0 4.608,-2.076 4.608,-4.632c0,-2.56 -2.058,-4.629 -4.608,-4.629l-7.899,0c-2.542,0 -4.603,2.069 -4.603,4.629c0,2.556 2.061,4.632 4.603,4.632l7.899,0Z" style="fill:#c74634;"/></g></g></svg>