<svg xmlns="http://www.w3.org/2000/svg" id="Capa_1" enable-background="new 0 0 512 512" height="512" viewBox="0 0 512 512" width="512"><g style="fill: #C74634;"><g><path d="m170.652 136.8c-3.335-2.457-8.033-1.743-10.488 1.594l-14.845 20.169-5.076-6.972c-2.438-3.348-7.13-4.088-10.48-1.649-3.349 2.439-4.088 7.132-1.649 10.481l8.757 12.026c1.95 2.677 5.091 4.28 8.402 4.289h.026c3.302 0 6.439-1.585 8.397-4.245l18.552-25.204c2.454-3.337 1.74-8.033-1.596-10.489z"/><path d="m170.652 259.827c-3.335-2.457-8.033-1.743-10.488 1.594l-14.845 20.168-5.076-6.971c-2.439-3.349-7.129-4.089-10.481-1.65-3.349 2.439-4.088 7.131-1.649 10.48l8.757 12.028c1.949 2.676 5.09 4.28 8.401 4.288.009.001.018.001.026.001 3.302 0 6.44-1.586 8.398-4.246l18.552-25.203c2.455-3.337 1.741-8.034-1.595-10.489z"/><path d="m170.652 377.611c-3.335-2.457-8.033-1.743-10.488 1.594l-14.845 20.168-5.076-6.971c-2.439-3.348-7.129-4.089-10.481-1.65-3.349 2.439-4.088 7.131-1.649 10.48l8.757 12.028c1.949 2.676 5.09 4.28 8.401 4.288.009.001.018.001.026.001 3.302 0 6.44-1.586 8.398-4.246l18.552-25.203c2.455-3.336 1.741-8.033-1.595-10.489z"/><path d="m228.027 147.871h92.716c4.143 0 7.502-3.358 7.502-7.502s-3.359-7.502-7.502-7.502h-92.716c-4.143 0-7.502 3.358-7.502 7.502s3.359 7.502 7.502 7.502z"/><path d="m228.027 179.212h46.358c4.143 0 7.502-3.358 7.502-7.502s-3.359-7.502-7.502-7.502h-46.358c-4.143 0-7.502 3.358-7.502 7.502s3.359 7.502 7.502 7.502z"/><path d="m228.027 268.276h62.208c4.143 0 7.502-3.358 7.502-7.502s-3.359-7.502-7.502-7.502h-62.208c-4.143 0-7.502 3.358-7.502 7.502s3.359 7.502 7.502 7.502z"/><path d="m274.385 299.618c4.143 0 7.502-3.358 7.502-7.502s-3.359-7.502-7.502-7.502h-46.358c-4.143 0-7.502 3.358-7.502 7.502s3.359 7.502 7.502 7.502z"/><path d="m179.087 108.047h-57.794c-10.529 0-19.096 8.567-19.096 19.096v57.794c0 10.529 8.567 19.096 19.096 19.096h57.794c10.529 0 19.096-8.567 19.096-19.096v-57.794c0-10.529-8.566-19.096-19.096-19.096zm4.093 76.89c0 2.256-1.836 4.092-4.092 4.092h-57.794c-2.256 0-4.092-1.835-4.092-4.092v-57.794c0-2.256 1.836-4.092 4.092-4.092h57.794c2.256 0 4.092 1.835 4.092 4.092z"/><path d="m179.087 228.453h-57.794c-10.529 0-19.096 8.567-19.096 19.096v57.794c0 10.529 8.567 19.096 19.096 19.096h57.794c10.529 0 19.096-8.567 19.096-19.096v-57.794c0-10.53-8.566-19.096-19.096-19.096zm4.093 76.89c0 2.256-1.836 4.092-4.092 4.092h-57.794c-2.256 0-4.092-1.835-4.092-4.092v-57.794c0-2.256 1.836-4.092 4.092-4.092h57.794c2.256 0 4.092 1.835 4.092 4.092z"/><path d="m179.087 348.857h-57.794c-10.529 0-19.096 8.567-19.096 19.096v57.794c0 10.529 8.567 19.096 19.096 19.096h57.794c10.529 0 19.096-8.567 19.096-19.096v-57.794c0-10.529-8.566-19.096-19.096-19.096zm4.093 76.89c0 2.256-1.836 4.092-4.092 4.092h-57.794c-2.256 0-4.092-1.835-4.092-4.092v-57.794c0-2.256 1.836-4.092 4.092-4.092h57.794c2.256 0 4.092 1.835 4.092 4.092z"/><path d="m465.253 128.318-11.906-7.54c-6.182-3.916-13.52-5.187-20.658-3.584-7.139 1.605-13.226 5.894-17.139 12.077l-10.918 17.252-15.16 23.955-17.144 27.091v-112.608c0-7.755-6.309-14.064-14.064-14.064h-53.756v-15.003h71.966c5.987 0 10.858 4.87 10.858 10.857v64.968c0 4.144 3.359 7.502 7.502 7.502s7.502-3.358 7.502-7.502v-64.968c0-14.259-11.601-25.861-25.861-25.861h-73.518c-3.072-7.417-10.381-12.651-18.895-12.651h-19.38v-7.555c0-11.404-9.279-20.684-20.685-20.684h-51.638c-11.406 0-20.685 9.28-20.685 20.685v7.555h-19.38c-8.514 0-15.823 5.234-18.894 12.651h-73.519c-14.26 0-25.861 11.601-25.861 25.861v419.388c0 14.259 11.601 25.861 25.861 25.861h316.595c14.26 0 25.861-11.602 25.861-25.861v-168.208c0-4.144-3.359-7.502-7.502-7.502s-7.502 3.358-7.502 7.502v168.207c0 5.987-4.871 10.857-10.858 10.857h-316.594c-5.987 0-10.858-4.87-10.858-10.857v-419.388c0-5.987 4.871-10.857 10.858-10.857h71.966v15.004h-53.756c-7.755 0-14.064 6.309-14.064 14.064v382.967c0 7.755 6.309 14.064 14.064 14.064h280.174c7.755 0 14.064-6.309 14.064-14.064v-141.572l75.331-119.037c.001-.002.003-.005.004-.007l15.155-23.947 10.925-17.263c8.073-12.759 4.264-29.709-8.491-37.785zm-29.274 3.515c3.229-.728 6.546-.151 9.341 1.62l11.906 7.541c5.768 3.652 7.49 11.316 3.839 17.085l-6.912 10.922-32.832-20.791 6.908-10.915c1.769-2.797 4.521-4.737 7.75-5.462zm-142.082 290.406c-1.42 2.242-3.01 4.356-4.751 6.335-2.355-3.158-5.031-6.017-7.974-8.537l139.787-220.744 10.013 6.341zm-51.227 44.741c-.052-.018-.117-.053-.142-.053-.005 0-.008.001-.01.005 16.25-67.488 8.339-34.633 10.598-44.015 9.746 1.629 18.807 7.108 24.769 15.685-39.722 32.008-34.651 27.865-35.215 28.378zm170.628-306.092 32.832 20.791-7.136 11.276-32.832-20.791zm-266.448-112.034c.005-.092.011-.184.013-.277.001-.032-.003-.063-.002-.095.108-2.906 2.5-5.24 5.433-5.24h21.491c7.109 0 12.893-5.784 12.893-12.893v-9.665c0-3.133 2.549-5.681 5.682-5.681h51.638c3.133 0 5.682 2.548 5.682 5.681v9.665c0 7.109 5.784 12.893 12.893 12.893h21.491c2.933 0 5.325 2.333 5.433 5.24 0 .032-.003.063-.002.095.002.091.008.183.013.275v22.045h-142.658zm-67.82 37.047h278.295v135.377l-78.516 124.072c-2.216 3.501-1.174 8.136 2.327 10.351 3.486 2.205 8.126 1.189 10.351-2.328l106.651-168.531 10.144 6.423-139.787 220.745c-3.536-1.583-7.264-2.78-11.126-3.558 1.046-2.42 2.276-4.762 3.696-7.006l11.662-18.427c2.216-3.501 1.174-8.135-2.327-10.351-3.502-2.215-8.136-1.173-10.351 2.328l-11.661 18.426c-3.853 6.085-6.661 12.718-8.348 19.716 0 .002-.001.003-.001.005l-12.088 50.151c-.299 1.239-.438 2.478-.435 3.696h-148.486zm278.295 381.088h-90.753l25.747-20.747c5.604-4.516 10.4-9.891 14.254-15.978l50.752-80.198z"/></g></g></svg>